<svg xmlns="http://www.w3.org/2000/svg" viewBox="0 0 150 50"><defs><style>.cls-1{fill:none;}.cls-2{fill:#fff;}.cls-3{fill:#1c75bc;}</style></defs><g id="Layer_2" data-name="Layer 2"><rect class="cls-1" width="150" height="50"/></g><g id="Logo"><path class="cls-2" d="M2.47,18.63v3.48H15.09V18.63Zm8.94-6.1a7.57,7.57,0,0,0-1-.06,5.81,5.81,0,0,0-4.14,1.32,5.06,5.06,0,0,0-1.4,3.89V32.91h4.2V18a2,2,0,0,1,.5-1.46,2.17,2.17,0,0,1,1.57-.5,4.38,4.38,0,0,1,.67,0,2,2,0,0,1,.48.13v-3.5A4.29,4.29,0,0,0,11.41,12.53Zm2.68.22V17h4.2V12.75Zm0,5.88V32.91h4.2V18.63Z"/><path class="cls-2" d="M25.2,22V18.63H21.09V32.91h4.2V22ZM34,19.68a4.81,4.81,0,0,0-3.64-1.33,5.78,5.78,0,0,0-3.35.94,5.87,5.87,0,0,0-1.78,2c-.1.17-.19.36-.28.55l.37,3.44a3.77,3.77,0,0,1,.43-1.85,3.22,3.22,0,0,1,1.2-1.23,3.43,3.43,0,0,1,1.75-.45,2.4,2.4,0,0,1,1.75.59A2.37,2.37,0,0,1,31,24.07v8.84h4.2V23.25A5,5,0,0,0,34,19.68Z"/><path class="cls-2" d="M48.44,12.75V20.8a3.58,3.58,0,0,0-1.19-1.49,5.36,5.36,0,0,0-3.32-1,6.29,6.29,0,0,0-3.43.93,6.1,6.1,0,0,0-2.28,2.6,9,9,0,0,0-.81,3.95,9,9,0,0,0,.78,3.89,6,6,0,0,0,2.23,2.56,6.19,6.19,0,0,0,3.4.91,5.83,5.83,0,0,0,3.32-.92,3.77,3.77,0,0,0,1.38-1.58v2.22h4.12V12.75Zm-.87,16a3,3,0,0,1-2.4,1,3.17,3.17,0,0,1-2.46-1,4.35,4.35,0,0,1-.93-3,4.45,4.45,0,0,1,.93-3,3.07,3.07,0,0,1,2.4-1.07,3.13,3.13,0,0,1,2.45,1.05,4.41,4.41,0,0,1,.94,3A4.39,4.39,0,0,1,47.57,28.78Z"/><path class="cls-2" d="M68.94,21.74a6.42,6.42,0,0,0-2.52-2.49,7.81,7.81,0,0,0-3.84-.9,8.41,8.41,0,0,0-4,.94,6.79,6.79,0,0,0-2.7,2.61,7.52,7.52,0,0,0-1,3.87,7.57,7.57,0,0,0,1,3.87,6.7,6.7,0,0,0,2.73,2.62,8.72,8.72,0,0,0,4.14.93A7.33,7.33,0,0,0,67.07,32a6.36,6.36,0,0,0,2.4-3.26h-4a2.18,2.18,0,0,1-1.09,1.09,4.06,4.06,0,0,1-1.74.34A3.4,3.4,0,0,1,60,29.11,4,4,0,0,1,59.13,27H69.72a5.13,5.13,0,0,0,.08-.71c0-.25,0-.53,0-.83A7.65,7.65,0,0,0,68.94,21.74ZM59.2,24.26A4,4,0,0,1,60,22.5a3.11,3.11,0,0,1,2.56-1.12,3,3,0,0,1,2.26.82,3.14,3.14,0,0,1,.8,2.06Z"/><path class="cls-2" d="M76.19,22V18.63H72.07V32.91h4.2V22Zm9.4-.89a4.33,4.33,0,0,0-1-1.49,4.68,4.68,0,0,0-3.49-1.26,5.45,5.45,0,0,0-3.2.94,5.86,5.86,0,0,0-1.75,1.95c-.1.18-.19.36-.28.56L76.27,25a3.49,3.49,0,0,1,.42-1.75,2.92,2.92,0,0,1,1.16-1.15,3.38,3.38,0,0,1,1.64-.41,2.34,2.34,0,0,1,1.61.52,2,2,0,0,1,.58,1.61v9.07h4.2V22.78A4.78,4.78,0,0,0,85.59,21.1Zm8.64-1.44a4.7,4.7,0,0,0-3.56-1.31,5.87,5.87,0,0,0-3.35.94,5.75,5.75,0,0,0-1.73,1.81,7.67,7.67,0,0,0-.36.7L85.88,25a3.49,3.49,0,0,1,.42-1.75,2.85,2.85,0,0,1,1.16-1.15,3.35,3.35,0,0,1,1.64-.41,2.36,2.36,0,0,1,1.61.52,2.08,2.08,0,0,1,.57,1.61v9.07h4.2V23.06A4.66,4.66,0,0,0,94.23,19.66Z"/><path class="cls-2" d="M98.36,12.19v0l0,0Zm.14,6.44V32.91h4.2V18.63Zm4.34-2.2V14.78l-1.46,1a2.49,2.49,0,0,1-1.46.08,3,3,0,0,1-.66-.27,2.38,2.38,0,0,1-.72-.62,1.51,1.51,0,0,1-.18-.26v1.48a1.57,1.57,0,0,0,.21.17.31.31,0,0,0,.09.07,3,3,0,0,0,.46.26l.14.06h2.91l.13,0Z"/><path class="cls-2" d="M114.39,29.36a3.3,3.3,0,0,1-1.86.53,3.1,3.1,0,0,1-1.75-.5A3.25,3.25,0,0,1,109.65,28a6.32,6.32,0,0,1,0-4.37,3.19,3.19,0,0,1,1.13-1.43,3.1,3.1,0,0,1,1.75-.5,3.3,3.3,0,0,1,1.86.53,2.73,2.73,0,0,1,1.11,1.57h4.06a6.07,6.07,0,0,0-1.25-2.83,6.34,6.34,0,0,0-1.51-1.36.05.05,0,0,0,0,0,5.75,5.75,0,0,0-.91-.51,8.59,8.59,0,0,0-7.32.27,6.91,6.91,0,0,0-2.68,2.63,7.59,7.59,0,0,0-1,3.83,7.72,7.72,0,0,0,.72,3.38,1.4,1.4,0,0,0,.09.17l.07.15.08.14a6.91,6.91,0,0,0,2.68,2.63,7.91,7.91,0,0,0,4,.95,8.11,8.11,0,0,0,3.37-.68,6.65,6.65,0,0,0,2.46-1.89,6.07,6.07,0,0,0,1.25-2.83H115.5A2.76,2.76,0,0,1,114.39,29.36Z"/><path class="cls-2" d="M121.74,12.75V32.91h4.2V12.75Zm12.88,6.93A4.8,4.8,0,0,0,131,18.35a5.54,5.54,0,0,0-5,2.76,7.49,7.49,0,0,0-.36.69l.36,3.44a3.78,3.78,0,0,1,.44-1.85,3.22,3.22,0,0,1,1.2-1.23,3.43,3.43,0,0,1,1.75-.45,2.4,2.4,0,0,1,1.75.59,2.37,2.37,0,0,1,.6,1.77v8.84h4.2V23.25A5,5,0,0,0,134.62,19.68Z"/></g><g id="Layer_3" data-name="Layer 3"><path class="cls-3" d="M105,16.36v.25h.25A3,3,0,0,0,105,16.36Zm-2.15-1.58,0,0,.16-.57H104a2.86,2.86,0,0,1-.59,1.35,3.26,3.26,0,0,1-.31.33,1.68,1.68,0,0,1-.21.18,3.1,3.1,0,0,1-.66.39,3.27,3.27,0,0,1-.82.26,2.78,2.78,0,0,1-.58.06h-.4a2.47,2.47,0,0,1-.56-.06,3.23,3.23,0,0,1-1.12-.38l-.13-.08-.21-.14a3.13,3.13,0,0,1-.94-1,.21.21,0,0,0,0-.06.26.26,0,0,1,0-.08.56.56,0,0,1,0-.08,4,4,0,0,1-.22-.72,3.4,3.4,0,0,1-.07-.46v-.47a.13.13,0,0,0,0-.06,3.31,3.31,0,0,1,.38-1.3,3.25,3.25,0,0,1,.67-.93,4.33,4.33,0,0,1,.71-.57,3.89,3.89,0,0,1,1.34-.5,3.68,3.68,0,0,1,2.49.44h0a2.8,2.8,0,0,1,.72.65,2.86,2.86,0,0,1,.59,1.34h-1l-.07-.11a5.35,5.35,0,0,0-.56-.7,2.71,2.71,0,0,0-3-.09,2.32,2.32,0,0,0-.69.67.37.37,0,0,0-.07.12l0,0a2.38,2.38,0,0,0,0,2.47,1.06,1.06,0,0,0,.17.26,2.41,2.41,0,0,0,.73.62,2.87,2.87,0,0,0,.65.27,2.44,2.44,0,0,0,1.26,0Z"/><path class="cls-3" d="M106.29,17.83V18s-.05.05-.05.07a.73.73,0,0,1-.94.54,1.17,1.17,0,0,1-.44-.31c-.25-.22-.46-.44-.69-.66s-.7-.7-1.06-1l-.06-.06s-.06-.05-.07-.07-.09-.07-.14,0a0,0,0,0,0,0,0,3.3,3.3,0,0,1-.41.23l-.08,0a3.57,3.57,0,0,1-1.06.3,3.68,3.68,0,0,1-2-.27l-.14-.06a3,3,0,0,1-.46-.26.31.31,0,0,1-.09-.07,1.57,1.57,0,0,1-.21-.17c-.13-.1-.26-.22-.38-.33a3,3,0,0,1-.56-.81,3.13,3.13,0,0,0,.94,1l.21.14.13.08a3.23,3.23,0,0,0,1.12.38,2.47,2.47,0,0,0,.56.06h.4a2.78,2.78,0,0,0,.58-.06,3.27,3.27,0,0,0,.82-.26,3.1,3.1,0,0,0,.66-.39,1.68,1.68,0,0,0,.21-.18,3.26,3.26,0,0,0,.31-.33,2.86,2.86,0,0,0,.59-1.35H103v0l.23-.79a2.41,2.41,0,0,0-.23-1,.84.84,0,0,0-.06-.14h1a2.86,2.86,0,0,0-.59-1.34,2.8,2.8,0,0,0-.72-.65c.09,0,.16.1.25.15a5.91,5.91,0,0,1,.79.72l.06.06a3.59,3.59,0,0,1,.6,3.28,3.45,3.45,0,0,1-.38.8c0,.05,0,.08,0,.13l.3.28.68.65,0,0v.25h.25l.77.75a.84.84,0,0,1,.23.41S106.27,17.81,106.29,17.83Z"/></g></svg>